<svg width="392" height="392" viewBox="0 0 392 392" fill="none" xmlns="http://www.w3.org/2000/svg">
<path fill-rule="evenodd" clip-rule="evenodd" d="M251.391 111.916C251.394 112.083 251.294 112.223 251.169 112.226L115.745 116.342C107.648 116.589 99.4562 116.864 91.7902 120.162C84.1271 123.46 76.9486 130.259 73.9008 140.129C70.1557 152.257 73.4397 166.728 79.8185 176.812C86.1978 186.898 95.1785 193.373 104.17 199.041C145.037 224.806 190.212 238.335 235.417 238.349C246.115 238.351 256.83 237.61 267.545 236.869C268.147 236.828 268.748 236.786 269.35 236.745C269.475 236.736 269.582 236.865 269.589 237.033C269.595 237.2 269.498 237.342 269.373 237.351C268.77 237.393 268.168 237.434 267.564 237.476C256.852 238.217 246.127 238.958 235.416 238.955C190.144 238.942 144.903 225.393 103.976 199.59C94.9801 193.919 85.919 187.398 79.4706 177.204C73.0217 167.008 69.65 152.301 73.4799 139.898C76.5953 129.81 83.9085 122.916 91.6505 119.585C99.3901 116.256 107.649 115.982 115.735 115.735L251.158 111.619C251.284 111.616 251.388 111.748 251.391 111.916Z" fill="#2249B3"/>
<path fill-rule="evenodd" clip-rule="evenodd" d="M215.266 376.121V45.6262H216.176V376.121H215.266Z" fill="#B0C1E1"/>
<path opacity="0.15" d="M215.265 376.122C146.927 376.122 91.3291 301.99 91.3291 210.874C91.3291 119.758 146.927 45.6267 215.265 45.6267" fill="#B0C1E1"/>
<path opacity="0.15" d="M215.264 340.297C161.741 340.297 118.196 282.237 118.196 210.874C118.196 139.509 161.741 81.4497 215.264 81.4497" fill="#B0C1E1"/>
<path opacity="0.25" d="M215.265 304.473C176.556 304.473 145.064 262.485 145.064 210.873C145.064 159.26 176.556 117.273 215.265 117.273" fill="#B0C1E1"/>
<path opacity="0.5" d="M215.265 268.651C191.333 268.651 171.933 242.783 171.933 210.874C171.933 178.966 191.333 153.098 215.265 153.098" fill="#B0C1E1"/>
<path d="M215.264 240.551C202.971 240.551 193.006 227.265 193.006 210.874C193.006 194.484 202.971 181.197 215.264 181.197" fill="#B0C1E1"/>
<path d="M276.196 202.945L255.245 263.664L251.84 273.538H200.629L197.225 263.664L176.273 202.945L183.147 155.225L211.872 141.303H240.598L269.323 155.225L276.196 202.945Z" fill="#8C8CEF"/>
<path d="M240.403 112.949V148.914C240.403 150.637 239.77 152.239 238.741 153.283C232.565 159.51 219.156 159.158 213.953 153.246C212.897 152.051 212.068 150.528 212.068 148.677V112.949H240.403Z" fill="#FF7373"/>
<path d="M234.09 143.721C228.178 149.857 222.964 149.645 218.38 143.721V118.915H234.09V143.721Z" fill="#B0C1E1"/>
<path opacity="0.42" d="M240.403 112.949V128.268C230.691 136.993 221.286 139.172 212.068 128.388V112.949H240.403Z" fill="black"/>
<path fill-rule="evenodd" clip-rule="evenodd" d="M219.531 121.263H232.938V141.995L232.794 142.144C230.371 144.659 228.05 145.917 225.83 145.894C223.604 145.872 221.542 144.562 219.644 142.109L219.531 141.963V121.263ZM220.277 122.258V141.54C222.04 143.765 223.888 144.88 225.836 144.899C227.791 144.92 229.906 143.837 232.192 141.507V122.258H220.277Z" fill="#2249B3"/>
<path d="M226.247 128.223H222.494C211.581 128.223 202.734 116.428 202.734 101.877V70.7462C202.734 56.1952 211.581 54.8162 222.494 54.8162H226.247C237.16 54.8162 246.007 56.1952 246.007 70.7462V101.877C246.007 116.428 237.16 128.223 226.247 128.223Z" fill="#B0C1E1"/>
<path fill-rule="evenodd" clip-rule="evenodd" d="M56.9791 268.179C45.0599 264.155 31.48 265.33 21.8984 275.484C17.1159 280.553 13.8317 288.242 12.7177 296.239C11.6039 304.234 12.663 312.508 16.534 318.77C16.6139 318.9 16.6001 319.091 16.5031 319.198C16.4061 319.304 16.2627 319.286 16.1827 319.157C12.2079 312.726 11.1376 304.259 12.2702 296.128C13.4027 287.998 16.7405 280.175 21.6152 275.01C31.3478 264.695 45.0921 263.54 57.0908 267.591C67.6184 271.145 77.2205 278.201 86.7284 285.187C88.0524 286.16 89.3744 287.131 90.6974 288.093C134.924 320.212 166.986 341.806 216.687 352.299C216.811 352.326 216.895 352.48 216.876 352.646C216.856 352.812 216.74 352.925 216.616 352.899C166.834 342.388 134.715 320.751 90.4794 288.625C89.1539 287.663 87.8304 286.69 86.506 285.717C76.9926 278.728 67.4455 271.713 56.9791 268.179Z" fill="#2249B3"/>
<path opacity="0.15" d="M384.296 272.081H252.502V281.73H384.296V272.081Z" fill="#B0C1E1"/>
<path opacity="0.15" d="M384.296 291.562H252.502V301.211H384.296V291.562Z" fill="#B0C1E1"/>
<path opacity="0.15" d="M384.296 311.045H252.502V320.694H384.296V311.045Z" fill="#B0C1E1"/>
<path d="M61.1928 344.007C82.6191 344.007 99.9891 320.848 99.9891 292.279C99.9891 263.711 82.6191 240.551 61.1928 240.551C39.7661 240.551 22.3965 263.711 22.3965 292.279C22.3965 320.848 39.7661 344.007 61.1928 344.007Z" fill="#8C8CEF"/>
<path d="M156.834 20.3542H9.79004V38.2473H156.834V20.3542Z" fill="#8C8CEF"/>
<path opacity="0.15" d="M156.834 45.6531H9.79004V172.204H156.834V45.6531Z" fill="#B0C1E1"/>
<path opacity="0.15" d="M52.9784 54.5999H17.3359V161.586H52.9784V54.5999Z" fill="#B0C1E1"/>
<path opacity="0.15" d="M96.251 54.5999H60.6084V60.6687H96.251V54.5999Z" fill="#B0C1E1"/>
<path opacity="0.15" d="M138.811 54.5999H103.168V60.6687H138.811V54.5999Z" fill="#B0C1E1"/>
<path opacity="0.15" d="M96.251 75.5698H60.6084V104.833H96.251V75.5698Z" fill="#B0C1E1"/>
<path opacity="0.15" d="M96.251 112.538H60.6084V141.801H96.251V112.538Z" fill="#B0C1E1"/>
<path opacity="0.15" d="M52.9784 167.296H17.3359V209.8H52.9784V167.296Z" fill="#B0C1E1"/>
<path opacity="0.15" d="M138.811 75.5698H103.168V104.833H138.811V75.5698Z" fill="#B0C1E1"/>
<path opacity="0.15" d="M138.811 112.538H103.168V141.801H138.811V112.538Z" fill="#B0C1E1"/>
<path fill-rule="evenodd" clip-rule="evenodd" d="M249.357 118.234C249.357 118.067 249.459 117.931 249.585 117.931H299.365C299.49 117.931 299.592 118.067 299.592 118.234C299.592 118.402 299.49 118.538 299.365 118.538H249.585C249.459 118.538 249.357 118.402 249.357 118.234Z" fill="#2249B3"/>
<path fill-rule="evenodd" clip-rule="evenodd" d="M263.376 113.474C263.376 113.307 263.478 113.171 263.603 113.171H299.364C299.49 113.171 299.592 113.307 299.592 113.474C299.592 113.642 299.49 113.778 299.364 113.778H263.603C263.478 113.778 263.376 113.642 263.376 113.474Z" fill="#2249B3"/>
<path fill-rule="evenodd" clip-rule="evenodd" d="M263.376 108.715C263.376 108.547 263.478 108.412 263.603 108.412H308.741C308.867 108.412 308.969 108.547 308.969 108.715C308.969 108.883 308.867 109.018 308.741 109.018H263.603C263.478 109.018 263.376 108.883 263.376 108.715Z" fill="#2249B3"/>
<path fill-rule="evenodd" clip-rule="evenodd" d="M263.376 103.954C263.376 103.787 263.478 103.651 263.603 103.651H299.364C299.49 103.651 299.592 103.787 299.592 103.954C299.592 104.122 299.49 104.258 299.364 104.258H263.603C263.478 104.258 263.376 104.122 263.376 103.954Z" fill="#2249B3"/>
<path d="M61.1928 292.279H99.9891C99.9891 320.657 82.4755 344.007 61.1928 344.007C39.9097 344.007 22.3965 320.657 22.3965 292.279C22.3965 263.902 39.9097 240.551 61.1928 240.551C69.2597 240.551 77.1291 243.906 83.6995 250.146L61.1928 292.279Z" fill="#B0C1E1"/>
<path d="M57.4552 281.713H96.2515C96.2515 310.09 78.7384 333.441 57.4552 333.441C36.1724 333.441 18.6592 310.09 18.6592 281.713C18.6592 258.11 30.7756 237.357 47.9371 231.566L57.4552 281.713Z" fill="#FF7373"/>
<path fill-rule="evenodd" clip-rule="evenodd" d="M68.7296 357.187H18.6592V354.152H68.7296V357.187Z" fill="#B0C1E1"/>
<path fill-rule="evenodd" clip-rule="evenodd" d="M68.7296 368.848H18.6592V365.814H68.7296V368.848Z" fill="#B0C1E1"/>
<path fill-rule="evenodd" clip-rule="evenodd" d="M252.616 347.267C252.616 333.523 244.26 322.381 233.951 322.381V321.167C244.762 321.167 253.526 332.853 253.526 347.267C253.526 361.683 244.762 373.368 233.951 373.368C223.14 373.368 214.376 361.683 214.376 347.267H215.286C215.286 361.012 223.643 372.154 233.951 372.154C244.26 372.154 252.616 361.012 252.616 347.267Z" fill="#8C8CEF"/>
<path fill-rule="evenodd" clip-rule="evenodd" d="M248.399 341.456C246.44 335.169 242.604 330.183 237.823 327.744L238.148 326.61C243.163 329.169 247.186 334.396 249.24 340.99L248.399 341.456Z" fill="#8C8CEF"/>
<path fill-rule="evenodd" clip-rule="evenodd" d="M367.525 182.533C357.216 182.533 348.86 193.675 348.86 207.42C348.86 221.164 357.216 232.306 367.525 232.306C377.833 232.306 386.189 221.164 386.189 207.42C386.189 193.675 377.833 182.533 367.525 182.533ZM347.949 207.42C347.949 193.005 356.713 181.32 367.525 181.32C378.336 181.32 387.1 193.005 387.1 207.42C387.1 221.835 378.336 233.52 367.525 233.52C356.713 233.52 347.949 221.835 347.949 207.42Z" fill="#B0C1E1"/>
<path fill-rule="evenodd" clip-rule="evenodd" d="M367.98 207.421V344.84C367.98 346.516 366.961 347.874 365.704 347.874H233.95V346.661H365.704C366.458 346.661 367.069 345.846 367.069 344.84V207.421H367.98Z" fill="#B0C1E1"/>
<path d="M276.013 206.904C276.013 206.904 286.264 277.326 301.177 282.297C316.09 287.268 293.163 200.938 293.163 200.938L288.689 178.072H276.013V206.904Z" fill="#FF7373"/>
<path d="M272.285 158.186C272.285 158.186 296.892 164.152 299.129 188.013C301.366 211.874 312.761 282.456 312.761 282.456L301.178 282.296L292.537 201.251C292.911 193.358 289.429 186.042 283.913 183.131L276.013 178.961L272.285 158.186Z" fill="#8C8CEF"/>
<path d="M276.584 219.21C278.748 218.894 280.187 214.82 279.8 210.111L275.669 159.898C275.344 155.942 273.811 152.688 271.967 152.041L269.932 151.326C267.234 150.378 265.178 155.292 265.873 161.032L272.038 211.96C272.57 216.355 274.547 219.508 276.584 219.21Z" fill="#2249B3"/>
<path d="M310.696 288.895C319.21 288.895 326.113 279.692 326.113 268.339C326.113 256.987 319.21 247.784 310.696 247.784C302.181 247.784 295.279 256.987 295.279 268.339C295.279 279.692 302.181 288.895 310.696 288.895Z" fill="#FF7373"/>
<path d="M323.888 181.426L337.166 185.027C337.166 185.027 323.768 276.9 319.086 280.381C313.356 284.64 304.844 284.983 300.888 270.742C297.548 258.717 321.56 201.246 323.888 181.426Z" fill="#8C8CEF"/>
<path d="M245.905 57.1697V70.8972L202.837 67.2013V57.1697C202.837 56.2716 202.919 55.3976 203.069 54.5602C204.007 49.3712 207.68 45.4993 212.072 45.4993H236.669C240.73 45.4993 244.18 48.8128 245.413 53.413C245.732 54.5905 245.905 55.8527 245.905 57.1697Z" fill="#B0C1E1"/>
<path d="M179.902 206.667C179.902 206.667 187.141 303.309 172.228 308.28C157.315 313.251 158.572 200.937 158.572 200.937L163.046 178.071L178.575 176.943L179.902 206.667Z" fill="#FF7373"/>
<path d="M179.45 158.186C179.45 158.186 154.844 164.152 152.607 188.013C150.37 211.874 160.645 308.441 160.645 308.441L172.228 308.28L159.198 201.251C158.825 193.358 162.307 186.042 167.822 183.131L175.722 178.961L179.45 158.186Z" fill="#8C8CEF"/>
<path d="M179.086 219.583C176.911 219.711 175.022 215.978 174.867 211.246L173.203 160.779C173.071 156.803 174.214 153.276 175.962 152.261C175.962 152.261 176.621 151.537 179.901 152.084C183.181 152.632 183.986 154.368 183.956 160.181L182.749 211.494C182.726 215.946 181.133 219.463 179.086 219.583Z" fill="#FF7373"/>
<path d="M171.872 317.231C180.387 317.231 187.289 308.028 187.289 296.675C187.289 285.322 180.387 276.12 171.872 276.12C163.358 276.12 156.456 285.322 156.456 296.675C156.456 308.028 163.358 317.231 171.872 317.231Z" fill="#FF7373"/>
<path d="M256.061 178.071L251.149 229.77C235.006 231.571 218.397 231.841 201.32 229.77L196.408 178.071C206.401 166.339 248.564 166.386 256.061 178.071Z" fill="#B0C1E1"/>
<path d="M251.149 181.725L247.046 224.909C233.563 226.413 219.689 226.639 205.425 224.909L201.321 181.725C209.668 171.925 244.887 171.965 251.149 181.725Z" fill="#2249B3"/>
<path d="M244.479 186.686L241.474 218.307C231.601 219.41 221.442 219.575 210.997 218.307L207.992 186.686C214.104 179.511 239.893 179.539 244.479 186.686Z" fill="#FF7373"/>
<path d="M233.629 109.211C234.375 111.819 231.78 120.46 224.613 119.982C220.038 119.677 216.171 112.684 216.931 109.211C222.665 110.931 228.246 111.084 233.629 109.211Z" fill="#2249B3"/>
<path fill-rule="evenodd" clip-rule="evenodd" d="M243.485 45.2506C243.894 43.0682 245.553 41.7416 247.189 42.2875L250.511 43.3952C252.147 43.9412 253.142 46.1528 252.733 48.3352L249.37 66.2617C248.96 68.4438 247.302 69.7707 245.665 69.2245L242.344 68.1171C240.707 67.5709 239.712 65.3594 240.121 63.1771L243.485 45.2506ZM247.009 43.252C245.771 42.8394 244.518 43.8422 244.208 45.4919L240.844 63.4183C240.535 65.0681 241.287 66.7399 242.525 67.1528L245.846 68.2602C247.083 68.6731 248.337 67.6702 248.647 66.0206L252.01 48.0939C252.319 46.4443 251.567 44.7724 250.33 44.3598L247.009 43.252Z" fill="#2249B3"/>
<path fill-rule="evenodd" clip-rule="evenodd" d="M252.831 25.8525L246.231 60.7461L245.508 60.503L252.108 25.6094L252.831 25.8525Z" fill="#2249B3"/>
<path opacity="0.3" d="M252.469 35.1308C248.582 35.1308 245.42 30.9145 245.42 25.7317C245.42 20.5495 248.582 16.3333 252.469 16.3333C256.356 16.3333 259.518 20.5495 259.518 25.7317C259.518 30.9145 256.356 35.1308 252.469 35.1308Z" fill="#FF7373"/>
<path opacity="0.3" d="M252.469 32.0958C249.837 32.0958 247.695 29.2409 247.695 25.7312C247.695 22.222 249.837 19.3672 252.469 19.3672C255.101 19.3672 257.242 22.222 257.242 25.7312C257.242 29.2409 255.101 32.0958 252.469 32.0958Z" fill="#FF7373"/>
<path d="M252.469 29.0617C253.849 29.0617 254.967 27.5708 254.967 25.7317C254.967 23.8925 253.849 22.4016 252.469 22.4016C251.09 22.4016 249.972 23.8925 249.972 25.7317C249.972 27.5708 251.09 29.0617 252.469 29.0617Z" fill="#FF7373"/>
<path d="M202.651 238.308C203.482 238.308 204.157 237.409 204.157 236.3C204.157 235.191 203.482 234.291 202.651 234.291C201.819 234.291 201.145 235.191 201.145 236.3C201.145 237.409 201.819 238.308 202.651 238.308Z" fill="#2249B3"/>
<path d="M206.729 238.308C207.56 238.308 208.235 237.409 208.235 236.3C208.235 235.191 207.56 234.291 206.729 234.291C205.897 234.291 205.223 235.191 205.223 236.3C205.223 237.409 205.897 238.308 206.729 238.308Z" fill="#B0C1E1"/>
<path d="M210.806 238.308C211.638 238.308 212.312 237.409 212.312 236.3C212.312 235.191 211.638 234.291 210.806 234.291C209.974 234.291 209.3 235.191 209.3 236.3C209.3 237.409 209.974 238.308 210.806 238.308Z" fill="#FF7373"/>
<path d="M233.692 109.128C233.807 109.247 233.837 109.535 233.814 109.918C233.651 112.556 231.826 113.866 229.869 114.318C226.63 115.068 221.623 114.452 218.816 112.89C217.769 112.307 216.83 111.322 216.857 109.808C216.862 109.528 216.902 109.287 216.994 109.128C222.73 110.947 228.307 111.065 233.692 109.128Z" fill="white"/>
<path d="M191.218 346.885L202.651 336.524C202.651 336.524 185.074 291.703 178.885 288.617C171.311 284.842 164.978 289.046 163.55 299.014C162.123 308.982 178.88 334.439 191.218 346.885Z" fill="#8C8CEF"/>
<path d="M199.089 330.765C203.247 326.767 207.102 323.378 212.423 323.991C215.366 325.128 218.878 327.232 220.958 330.053C223.039 332.874 224.126 336.573 224.876 339.718C225.23 341.204 224.761 341.381 224.108 341.721C223.237 342.176 222.11 341.902 221.477 340.67C220.374 338.521 219.542 336.065 217.633 334.814C215.723 333.564 212.943 333.019 211.121 333.901C209.299 334.784 209.142 336.029 209.47 338.071C206.228 331.638 204.749 333.433 199.089 330.765Z" fill="#8C8CEF"/>
<path d="M208.173 358.088C208.173 358.088 199.764 356.613 194.399 352.273C187.65 346.814 191.753 338.058 191.753 338.058L208.173 358.088Z" fill="#2249B3"/>
<path fill-rule="evenodd" clip-rule="evenodd" d="M220.798 330.289C217.711 334.594 215.969 340.581 215.969 347.268H213.693C213.693 339.875 215.624 333.114 219.153 328.193C222.691 323.26 227.774 320.257 233.951 320.257V323.292C228.354 323.292 223.878 325.995 220.798 330.289Z" fill="#FF7373"/>
<path d="M337.947 188.538C336.046 191.769 327.722 193.023 322.107 185.029C316.491 177.034 309.372 159.52 315.171 154.03C317.573 151.756 319.413 167.459 320.719 162.75C323.42 153.02 322.359 127.969 328.611 127.969C330.75 127.969 327.804 136.232 329.638 139.496C331.726 143.214 331.398 146.485 332.809 151.861C335.115 160.644 343.452 165.603 342.893 169.165C341.692 176.819 337.947 188.538 337.947 188.538Z" fill="#8C8CEF"/>
<path d="M253.361 269.125L251.84 273.538H200.629L199.163 269.287L253.361 269.125Z" fill="black" fill-opacity="0.5"/>
<g opacity="0.25">
<path opacity="0.25" d="M245.905 74.4402L202.837 70.7443V60.7124C202.837 59.8142 202.837 57.9954 202.837 57.9954C217.507 49.3169 233.426 50.0042 245.751 56.9348C246.118 58.9871 245.925 59.7569 245.905 60.7124V74.4402Z" fill="#2249B3"/>
</g>
<path d="M253.478 280.381H198.991C197.232 280.381 195.806 278.479 195.806 276.133C195.806 273.787 197.232 271.885 198.991 271.885H253.478C255.237 271.885 256.664 273.787 256.664 276.133C256.664 278.479 255.237 280.381 253.478 280.381Z" fill="#FF7373"/>
<path opacity="0.25" d="M206.335 106.067C206.335 106.067 242.866 110.469 245.393 108.417C245.393 108.417 245.71 106.341 245.791 105.262L203.945 103.812L206.335 106.067Z" fill="#2249B3"/>
<path d="M243.574 106.066H205.003C205.003 106.066 197.79 105.627 196.459 101.111C194.221 93.5189 191.983 85.9278 189.746 78.3367C188.658 74.648 189.539 70.4072 191.943 68.0767C214.578 46.137 241.398 50.1313 257.098 67.801C259.265 70.2406 260.039 74.2403 259.002 77.7591C256.707 85.543 254.412 93.3268 252.118 101.111C250.786 105.627 243.574 106.066 243.574 106.066Z" fill="#8C8CEF"/>
<path d="M241.207 93.6781C230.336 89.4863 218.406 89.4863 207.534 93.6781C205.662 94.3961 203.515 93.6134 202.691 91.7495C201.89 89.8737 201.089 87.998 200.289 86.1223C199.464 84.2642 200.706 81.8155 203.125 80.8845C216.844 75.5958 231.897 75.5951 245.616 80.8845C248.036 81.8155 249.278 84.2649 248.454 86.1223C247.653 87.998 246.852 89.8737 246.051 91.7495C245.226 93.6134 243.08 94.3961 241.207 93.6781Z" fill="white"/>
<path d="M217.29 86.1015C213.585 85.7226 209.751 86.7849 206.467 89.1003C205.901 89.4976 205.172 89.4375 204.813 88.9115C204.462 88.3804 204.111 87.8486 203.759 87.3174C203.401 86.7934 203.678 85.8957 204.409 85.3809C208.554 82.4592 213.392 81.1186 218.066 81.5968C218.891 81.6804 219.412 82.3573 219.24 83.0276C219.077 83.7019 218.914 84.3761 218.75 85.0503C218.578 85.7226 217.928 86.1656 217.29 86.1015Z" fill="#2249B3"/>
<path d="M231.31 86.1015C235.015 85.7226 238.849 86.7849 242.134 89.1003C242.7 89.4976 243.429 89.4375 243.787 88.9115C244.138 88.3804 244.489 87.8486 244.841 87.3174C245.199 86.7934 244.923 85.8957 244.192 85.3809C240.047 82.4592 235.208 81.1186 230.534 81.5968C229.71 81.6804 229.188 82.3573 229.36 83.0276C229.523 83.7019 229.687 84.3761 229.85 85.0503C230.022 85.7226 230.673 86.1656 231.31 86.1015Z" fill="#2249B3"/>
<path fill-rule="evenodd" clip-rule="evenodd" d="M210.258 212.931C210.258 212.763 210.36 212.627 210.486 212.627H241.984C242.11 212.627 242.212 212.763 242.212 212.931C242.212 213.098 242.11 213.234 241.984 213.234H210.486C210.36 213.234 210.258 213.098 210.258 212.931Z" fill="#2249B3"/>
<path fill-rule="evenodd" clip-rule="evenodd" d="M210.258 209.8C210.258 209.632 210.36 209.496 210.486 209.496H241.984C242.11 209.496 242.212 209.632 242.212 209.8C242.212 209.967 242.11 210.103 241.984 210.103H210.486C210.36 210.103 210.258 209.967 210.258 209.8Z" fill="#2249B3"/>
<path fill-rule="evenodd" clip-rule="evenodd" d="M210.258 206.667C210.258 206.499 210.36 206.363 210.486 206.363H241.984C242.11 206.363 242.212 206.499 242.212 206.667C242.212 206.834 242.11 206.97 241.984 206.97H210.486C210.36 206.97 210.258 206.834 210.258 206.667Z" fill="#2249B3"/>
<path opacity="0.15" d="M327.967 146.795C342.411 146.795 354.121 131.182 354.121 111.923C354.121 92.663 342.411 77.0503 327.967 77.0503C313.522 77.0503 301.812 92.663 301.812 111.923C301.812 131.182 313.522 146.795 327.967 146.795Z" fill="#FF7373"/>
<path opacity="0.15" d="M327.967 139.235C339.28 139.235 348.451 127.007 348.451 111.922C348.451 96.8383 339.28 84.6099 327.967 84.6099C316.654 84.6099 307.482 96.8383 307.482 111.922C307.482 127.007 316.654 139.235 327.967 139.235Z" fill="#FF7373"/>
<path opacity="0.25" d="M327.967 131.676C336.149 131.676 342.781 122.832 342.781 111.923C342.781 101.014 336.149 92.1704 327.967 92.1704C319.785 92.1704 313.152 101.014 313.152 111.923C313.152 122.832 319.785 131.676 327.967 131.676Z" fill="#FF7373"/>
<path opacity="0.5" d="M327.967 124.116C333.017 124.116 337.111 118.656 337.111 111.923C337.111 105.189 333.017 99.73 327.967 99.73C322.916 99.73 318.822 105.189 318.822 111.923C318.822 118.656 322.916 124.116 327.967 124.116Z" fill="#FF7373"/>
<path d="M327.967 118.185C330.561 118.185 332.664 115.381 332.664 111.923C332.664 108.463 330.561 105.66 327.967 105.66C325.372 105.66 323.27 108.463 323.27 111.923C323.27 115.381 325.372 118.185 327.967 118.185Z" fill="#FF7373"/>
<path fill-rule="evenodd" clip-rule="evenodd" d="M4.90039 20.3539C4.90039 20.1864 5.00226 20.0505 5.128 20.0505H49.3615C49.487 20.0505 49.5889 20.1864 49.5889 20.3539C49.5889 20.5215 49.487 20.6574 49.3615 20.6574H5.128C5.00226 20.6574 4.90039 20.5215 4.90039 20.3539Z" fill="#2249B3"/>
<path fill-rule="evenodd" clip-rule="evenodd" d="M114.085 38.2478C114.085 38.0802 114.187 37.9443 114.312 37.9443H158.546C158.672 37.9443 158.773 38.0802 158.773 38.2478C158.773 38.4154 158.672 38.5512 158.546 38.5512H114.312C114.187 38.5512 114.085 38.4154 114.085 38.2478Z" fill="#2249B3"/>
<path fill-rule="evenodd" clip-rule="evenodd" d="M12.9941 167.297C12.9941 167.129 13.096 166.993 13.2217 166.993H57.455C57.581 166.993 57.6829 167.129 57.6829 167.297C57.6829 167.464 57.581 167.6 57.455 167.6H13.2217C13.096 167.6 12.9941 167.464 12.9941 167.297Z" fill="#2249B3"/>
<path d="M17.727 31.8377C18.9693 31.8377 19.9765 30.4949 19.9765 28.8384C19.9765 27.182 18.9693 25.8391 17.727 25.8391C16.4846 25.8391 15.4775 27.182 15.4775 28.8384C15.4775 30.4949 16.4846 31.8377 17.727 31.8377Z" fill="#B0C1E1"/>
<path d="M25.9311 31.8377C27.1735 31.8377 28.1806 30.4949 28.1806 28.8384C28.1806 27.182 27.1735 25.8391 25.9311 25.8391C24.6887 25.8391 23.6816 27.182 23.6816 28.8384C23.6816 30.4949 24.6887 31.8377 25.9311 31.8377Z" fill="#FF7373"/>
<path opacity="0.15" d="M384.296 291.562H252.502V301.211H384.296V291.562Z" fill="#B0C1E1"/>
<path opacity="0.15" d="M384.296 311.045H252.502V320.694H384.296V311.045Z" fill="#B0C1E1"/>
<path fill-rule="evenodd" clip-rule="evenodd" d="M249.357 118.234C249.357 118.067 249.459 117.931 249.585 117.931H299.365C299.49 117.931 299.592 118.067 299.592 118.234C299.592 118.402 299.49 118.538 299.365 118.538H249.585C249.459 118.538 249.357 118.402 249.357 118.234Z" fill="#2249B3"/>
<path fill-rule="evenodd" clip-rule="evenodd" d="M263.376 113.474C263.376 113.307 263.478 113.171 263.603 113.171H299.364C299.49 113.171 299.592 113.307 299.592 113.474C299.592 113.642 299.49 113.778 299.364 113.778H263.603C263.478 113.778 263.376 113.642 263.376 113.474Z" fill="#2249B3"/>
<path fill-rule="evenodd" clip-rule="evenodd" d="M263.376 108.715C263.376 108.547 263.478 108.412 263.603 108.412H308.741C308.867 108.412 308.969 108.547 308.969 108.715C308.969 108.883 308.867 109.018 308.741 109.018H263.603C263.478 109.018 263.376 108.883 263.376 108.715Z" fill="#2249B3"/>
<path fill-rule="evenodd" clip-rule="evenodd" d="M263.376 103.954C263.376 103.787 263.478 103.651 263.603 103.651H299.364C299.49 103.651 299.592 103.787 299.592 103.954C299.592 104.122 299.49 104.258 299.364 104.258H263.603C263.478 104.258 263.376 104.122 263.376 103.954Z" fill="#2249B3"/>
<path d="M276.584 219.21C278.748 218.894 280.187 214.82 279.8 210.111L275.669 159.898C275.344 155.942 273.811 152.688 271.967 152.041L269.932 151.326C267.234 150.378 265.178 155.292 265.873 161.032L272.038 211.96C272.57 216.355 274.547 219.508 276.584 219.21Z" fill="#FF7373"/>
<path d="M251.149 181.725L247.046 224.909C233.563 226.413 219.689 226.639 205.425 224.909L201.321 181.725C209.668 171.925 244.887 171.965 251.149 181.725Z" fill="#8C8CEF"/>
<path d="M244.479 186.686L241.474 218.307C231.601 219.41 221.442 219.575 210.997 218.307L207.992 186.686C214.104 179.511 239.893 179.539 244.479 186.686Z" fill="#FF7373"/>
<path d="M233.629 109.211C234.375 111.819 231.78 120.46 224.613 119.982C220.038 119.677 216.171 112.684 216.931 109.211C222.665 110.931 228.246 111.084 233.629 109.211Z" fill="#464646"/>
<path d="M202.651 238.308C203.482 238.308 204.157 237.409 204.157 236.3C204.157 235.191 203.482 234.291 202.651 234.291C201.819 234.291 201.145 235.191 201.145 236.3C201.145 237.409 201.819 238.308 202.651 238.308Z" fill="#FF7373"/>
<path d="M206.729 238.308C207.56 238.308 208.235 237.409 208.235 236.3C208.235 235.191 207.56 234.291 206.729 234.291C205.897 234.291 205.223 235.191 205.223 236.3C205.223 237.409 205.897 238.308 206.729 238.308Z" fill="#B0C1E1"/>
<path d="M210.806 238.308C211.638 238.308 212.312 237.409 212.312 236.3C212.312 235.191 211.638 234.291 210.806 234.291C209.974 234.291 209.3 235.191 209.3 236.3C209.3 237.409 209.974 238.308 210.806 238.308Z" fill="#FF7373"/>
<path d="M233.692 109.128C233.807 109.247 233.837 109.535 233.814 109.918C233.651 112.556 231.826 113.866 229.869 114.318C226.63 115.068 221.623 114.452 218.816 112.89C217.769 112.307 216.83 111.322 216.857 109.808C216.862 109.528 216.902 109.287 216.994 109.128C222.73 110.947 228.307 111.065 233.692 109.128Z" fill="white"/>
<path d="M208.173 358.088C208.173 358.088 199.764 356.613 194.399 352.273C187.65 346.814 191.753 338.058 191.753 338.058L208.173 358.088Z" fill="#8C8CEF"/>
<path opacity="0.25" d="M206.335 106.067C206.335 106.067 242.866 110.469 245.393 108.417C245.393 108.417 245.71 106.341 245.791 105.262L203.945 103.812L206.335 106.067Z" fill="#2249B3"/>
<path fill-rule="evenodd" clip-rule="evenodd" d="M210.258 212.931C210.258 212.763 210.36 212.627 210.486 212.627H241.984C242.11 212.627 242.212 212.763 242.212 212.931C242.212 213.098 242.11 213.234 241.984 213.234H210.486C210.36 213.234 210.258 213.098 210.258 212.931Z" fill="#2249B3"/>
<path fill-rule="evenodd" clip-rule="evenodd" d="M210.258 209.8C210.258 209.632 210.36 209.496 210.486 209.496H241.984C242.11 209.496 242.212 209.632 242.212 209.8C242.212 209.967 242.11 210.103 241.984 210.103H210.486C210.36 210.103 210.258 209.967 210.258 209.8Z" fill="#2249B3"/>
<path fill-rule="evenodd" clip-rule="evenodd" d="M210.258 206.667C210.258 206.499 210.36 206.363 210.486 206.363H241.984C242.11 206.363 242.212 206.499 242.212 206.667C242.212 206.834 242.11 206.97 241.984 206.97H210.486C210.36 206.97 210.258 206.834 210.258 206.667Z" fill="#2249B3"/>
<path fill-rule="evenodd" clip-rule="evenodd" d="M4.90039 20.3539C4.90039 20.1864 5.00226 20.0505 5.128 20.0505H49.3615C49.487 20.0505 49.5889 20.1864 49.5889 20.3539C49.5889 20.5215 49.487 20.6574 49.3615 20.6574H5.128C5.00226 20.6574 4.90039 20.5215 4.90039 20.3539Z" fill="#2249B3"/>
<path d="M17.727 31.8377C18.9693 31.8377 19.9765 30.4949 19.9765 28.8384C19.9765 27.182 18.9693 25.8391 17.727 25.8391C16.4846 25.8391 15.4775 27.182 15.4775 28.8384C15.4775 30.4949 16.4846 31.8377 17.727 31.8377Z" fill="#B0C1E1"/>
<path d="M25.9311 31.8377C27.1735 31.8377 28.1806 30.4949 28.1806 28.8384C28.1806 27.182 27.1735 25.8391 25.9311 25.8391C24.6887 25.8391 23.6816 27.182 23.6816 28.8384C23.6816 30.4949 24.6887 31.8377 25.9311 31.8377Z" fill="#FF7373"/>
<path d="M193.898 353.631C188.452 346.92 197.942 323.539 207.885 329.872C212.552 332.844 227.189 340.321 226.235 343.208C225.282 346.097 217.238 359.354 210.409 361.315C201.462 363.885 193.898 353.631 193.898 353.631Z" fill="#8C8CEF"/>
</svg>
