<svg width="440" height="314" viewBox="0 0 440 314" fill="none" xmlns="http://www.w3.org/2000/svg">
<g clip-path="url(#clip0_0_409)">
<path opacity="0.11" d="M215.738 312.079C284.914 312.079 340.992 304.442 340.992 295.021C340.992 285.6 284.914 277.963 215.738 277.963C146.562 277.963 90.4844 285.6 90.4844 295.021C90.4844 304.442 146.562 312.079 215.738 312.079Z" fill="#2A94F4"/>
<path opacity="0.11" d="M348.994 199.058C350.49 235.814 314.521 318.747 209.494 313.787C110.533 309.114 12.607 230.308 68.0943 105.932C121.715 -14.2582 218.194 -4.2774 252.204 5.24116C289.809 15.7657 397.238 58.4005 335.78 129.36C237.168 243.216 345.945 124.118 348.994 199.058Z" fill="#8C8CEF"/>
<path d="M167.651 82.2147L145.734 61.1302L107.403 101.008L129.319 122.09C137.982 105.384 151.342 91.5089 167.651 82.2147ZM118.439 166.849C118.439 157.239 119.838 147.957 122.432 139.188H92.0303V194.511H122.432C119.838 185.742 118.439 176.46 118.439 166.849ZM215.739 69.5111C225.345 69.5111 234.624 70.9107 243.389 73.5053V43.0918H188.088V73.5053C196.853 70.9107 206.132 69.5111 215.739 69.5111ZM302.159 122.09L324.074 101.008L285.743 61.1302L263.825 82.2147C280.135 91.5089 293.495 105.384 302.159 122.09ZM309.045 139.188C311.639 147.957 313.038 157.239 313.038 166.849C313.038 176.46 311.639 185.742 309.045 194.511H339.447V139.188H309.045ZM263.825 251.484L285.743 272.569L324.074 232.691L302.159 211.609C293.495 228.315 280.135 242.19 263.825 251.484ZM129.319 211.608L107.403 232.691L145.734 272.569L167.652 251.484C151.342 242.19 137.982 228.315 129.319 211.608ZM215.739 264.188C206.132 264.188 196.853 262.788 188.088 260.193V290.607H243.389V260.193C234.624 262.788 225.345 264.188 215.739 264.188Z" fill="#FFBE55"/>
<path d="M321.373 164.407C320.097 106.052 272.446 59.1306 213.808 59.1306C201.46 59.1306 189.611 61.2382 178.565 65.067C170.534 67.8514 162.953 71.5851 155.918 76.0953C148.332 80.9588 141.383 86.7283 135.253 93.2816C128.583 100.412 122.855 108.435 118.305 117.175C110.573 132.025 106.182 148.894 106.182 166.8C106.182 170.188 106.351 173.535 106.657 176.843C110.879 222.486 143.569 259.874 186.806 271.049C195.435 273.279 204.482 274.469 213.808 274.469C273.248 274.469 321.434 226.264 321.434 166.8C321.434 165.998 321.391 165.205 321.373 164.407ZM213.808 236.902C207.72 236.902 201.814 236.123 196.183 234.663C167.494 227.228 145.982 202.059 143.935 171.554C143.83 169.979 143.733 168.401 143.733 166.8C143.733 154.88 146.73 143.672 151.977 133.847C155.262 127.697 159.457 122.116 164.347 117.229C167.803 113.775 171.629 110.698 175.737 108.019C180.711 104.774 186.106 102.122 191.855 100.226C198.938 97.8861 206.349 96.6947 213.808 96.6966C251.707 96.6966 282.559 126.8 283.822 164.407C283.849 165.203 283.883 165.997 283.883 166.799C283.882 205.516 252.508 236.902 213.808 236.902Z" fill="#FFBE55"/>
<path fill-rule="evenodd" clip-rule="evenodd" d="M161.862 215.916C161.862 215.916 158.264 218.603 156.423 219.977C156.114 220.208 155.741 220.337 155.355 220.348C154.969 220.358 154.589 220.249 154.268 220.035C153.904 219.793 153.594 219.48 153.356 219.114C153.118 218.748 152.958 218.337 152.884 217.906C152.811 217.476 152.827 217.035 152.93 216.61C153.033 216.186 153.222 215.788 153.485 215.439L156.68 211.207L161.862 215.916Z" fill="#FCD2B1"/>
<path fill-rule="evenodd" clip-rule="evenodd" d="M225.284 192.969C227.967 194.943 232.779 196.985 234.529 199.227C245.769 213.628 233.904 224.692 217.716 213.632C191.697 195.855 194.484 189.21 161.634 218.153L154.192 212.325C178.318 172.21 187.702 165.313 225.284 192.969Z" fill="#0E538C"/>
<path fill-rule="evenodd" clip-rule="evenodd" d="M194.819 260.65L192.693 268.527C192.579 268.952 192.314 269.321 191.949 269.565C191.584 269.81 191.142 269.914 190.706 269.858C190.113 269.782 189.574 269.473 189.208 269C188.842 268.526 188.679 267.927 188.754 267.333L189.928 258.157L194.819 260.65Z" fill="#FCD2B1"/>
<path fill-rule="evenodd" clip-rule="evenodd" d="M194.505 267.736C194.492 267.366 187.275 266.736 187.19 267.02C187.166 267.056 187.154 267.096 187.142 267.137C185.984 271.035 182.191 273.535 178.153 273.059C177.921 273.031 177.685 273.048 177.459 273.108C174.962 273.775 173.575 275.192 173.323 277.379C180.374 278.31 187.537 278.14 194.819 276.781L194.505 267.736ZM157.945 220.151C158.116 219.821 152.149 215.711 151.935 215.917C151.898 215.937 151.865 215.963 151.836 215.994C148.906 218.814 144.374 219.115 141.096 216.708C140.908 216.57 140.695 216.468 140.469 216.408C137.968 215.756 136.062 216.304 134.765 218.081C140.439 222.372 146.753 225.76 153.757 228.173L157.945 220.151Z" fill="#0B4870"/>
<path fill-rule="evenodd" clip-rule="evenodd" d="M235.159 208.031C238.487 208.162 243.616 207.155 246.321 208.031C263.698 213.656 257.812 234.603 238.209 234.518C206.701 234.383 206.325 229.464 195.904 262.555L188.268 261.827C185.776 215.078 188.54 206.198 235.159 208.031Z" fill="#0E538C"/>
<path fill-rule="evenodd" clip-rule="evenodd" d="M239.723 190.645C239.723 190.645 244.607 193.957 246.798 191.606C248.989 189.256 247.47 196.434 247.47 196.434L244.979 199.058L240.469 194.733L235.903 189.862L239.723 190.645ZM265.073 168.152C261.902 164.583 256.194 158.318 256.194 158.318C256.194 158.318 246.356 161.492 247.47 167.637C248.584 173.783 249.23 178.792 249.23 178.792L261.85 175.32C261.85 175.32 268.244 171.721 265.073 168.152Z" fill="#FCD2B1"/>
<path fill-rule="evenodd" clip-rule="evenodd" d="M247.442 167.637C247.442 167.637 250.737 199.679 238.932 202.151L238.209 208.031C238.209 208.031 249.09 205.172 251.469 200.32C253.848 195.468 256.73 171.146 256.73 171.146C252.307 171.48 249.092 170.445 247.442 167.637Z" fill="#0B4870"/>
<path fill-rule="evenodd" clip-rule="evenodd" d="M235.677 140.824C231.351 143.955 229.705 149.57 230.96 155.087C231.184 156.069 232.205 160.725 233.445 162.515C239.704 171.554 250.191 169.185 254.127 166.337C260.196 161.945 260.99 152.662 255.898 145.622C250.807 138.581 241.746 136.432 235.677 140.824Z" fill="#FFE3CA"/>
<path fill-rule="evenodd" clip-rule="evenodd" d="M222.269 148.883C222.804 160.15 240.109 149.152 240.734 146.585C240.641 150.167 242.372 152.949 245.763 155.001C245.763 155.001 245.025 158.62 248.222 160.261C251.419 161.901 256.522 165.569 259.253 162.448C261.118 160.316 261.582 155.741 261.992 151.933C263.761 135.514 249.775 137.579 246.73 136.164C246.73 136.164 221.347 129.476 222.269 148.883Z" fill="#0B4870"/>
<path fill-rule="evenodd" clip-rule="evenodd" d="M245.381 155.609C245.381 153.579 247.026 151.933 249.056 151.933C251.085 151.933 252.731 153.579 252.731 155.609V155.966C252.731 158.192 250.927 159.997 248.701 159.997H245.381V155.609Z" fill="#FFE3CA"/>
<path d="M214.308 174.623L242.31 196.973L243.161 195.894L215.555 174.083C215.082 173.922 214.591 174.263 214.308 174.623Z" fill="#D3D3D3"/>
<path fill-rule="evenodd" clip-rule="evenodd" d="M215.064 174.623L242.736 196.434L238.217 207.891L210.545 186.079L215.064 174.623Z" fill="#F7F7F7"/>
<path d="M237.569 207.781C237.335 208.899 237.693 209.236 238.875 208.486L243.594 196.434C243.386 195.796 242.887 195.713 242.095 196.184L237.569 207.781Z" fill="#D3D3D3"/>
<path d="M209.767 185.826C209.63 186.245 209.667 186.335 209.976 186.617L237.638 208.782L238.497 207.709L211.232 185.863L215.255 174.623H214.307L209.767 185.826Z" fill="#D3D3D3"/>
<path fill-rule="evenodd" clip-rule="evenodd" d="M241.055 206.823C246.202 208.866 248.913 219.716 250.199 232.08C299.066 218.462 282.796 178.156 262.695 165.496C261.844 169.592 258.984 170.525 254.23 171.146C254.094 184.536 253.298 192.143 241.055 206.823Z" fill="#0B4870"/>
<path fill-rule="evenodd" clip-rule="evenodd" d="M245.181 208.603C243.935 208.093 242.661 207.651 241.365 207.281C240.826 207.141 240.325 206.883 239.898 206.526C239.471 206.168 239.129 205.721 238.896 205.215C237.97 203.188 236.461 201.442 234.334 199.993C233.934 199.722 233.603 199.36 233.37 198.937C233.003 198.28 232.499 197.369 232.499 197.369C232.132 196.715 231.648 196.428 231.143 196.434C230.932 196.433 230.724 196.489 230.544 196.598C230.363 196.707 230.216 196.863 230.118 197.05C230.02 197.237 229.976 197.447 229.99 197.658C230.004 197.868 230.076 198.071 230.198 198.243C230.846 199.23 231.936 200.777 232.652 201.793C232.686 201.841 232.703 201.899 232.702 201.957C232.701 202.015 232.682 202.072 232.646 202.119C232.611 202.165 232.562 202.199 232.506 202.216C232.45 202.233 232.39 202.231 232.335 202.212C231.931 202.063 231.496 202.048 231.044 202.141C230.625 202.224 230.191 202.208 229.779 202.094C229.366 201.98 228.986 201.772 228.668 201.485C227.785 200.696 226.762 199.949 225.576 199.246C224.73 198.744 223.947 199.743 224.001 200.798L230.494 205.737C235.676 206.307 239.721 209.096 243.54 212.325C243.539 212.325 248.492 209.954 245.181 208.603Z" fill="#FCD2B1"/>
<path fill-rule="evenodd" clip-rule="evenodd" d="M256.301 208.486C252.181 209.78 247.345 209.356 245.298 208.672C243.917 208.21 241.729 211.159 243.254 212.045C246.624 214.003 253.173 217.198 258.768 218.872C259.755 215.342 257.783 211.467 256.301 208.486Z" fill="#FCD2B1"/>
<path fill-rule="evenodd" clip-rule="evenodd" d="M258.324 218.736C269.08 221.857 290.36 215.047 276.55 179.284C275.859 177.493 271.023 171.919 264.582 174.228C262.028 175.143 256.556 179.322 260.035 186.763C267.66 203.074 261.109 206.993 255.082 208.887C257.751 211.794 259.309 215.21 258.324 218.736Z" fill="#0E538C"/>
<path d="M233.546 187.643C232.81 187.653 232.003 187.825 231.792 188.498C231.554 189.253 232.304 190.061 233.16 189.905C234.904 189.608 236.664 190.744 238.324 191.886C238.324 191.886 239.778 192.316 240.036 191.225C240.273 190.226 238.85 189.501 237.631 188.848C236.361 188.168 234.992 187.624 233.546 187.643Z" fill="#FCD2B1"/>
</g>
<defs>
<clipPath id="clip0_0_409">
<rect width="558" height="314" fill="white" transform="translate(-59)"/>
</clipPath>
</defs>
</svg>
